<svg width="65" height="67" viewBox="0 0 65 67" fill="none" xmlns="http://www.w3.org/2000/svg">
<line y1="-1" x2="65.558" y2="-1" transform="matrix(0.696266 -0.717784 0.696266 0.717784 5.02393 49.0564)" stroke="#11152C" stroke-width="2"/>
<line y1="-1" x2="64.9778" y2="-1" transform="matrix(0.696266 -0.717784 0.696266 0.717784 18.7583 62.7986)" stroke="#11152C" stroke-width="2"/>
<line y1="-1" x2="21.2121" y2="-1" transform="matrix(0.696266 0.717784 -0.696266 0.717784 48.2461 2)" stroke="#11152C" stroke-width="2"/>
<line y1="-1" x2="20.3056" y2="-1" transform="matrix(0.696266 0.717784 -0.696266 0.717784 4.62012 48.6401)" stroke="#11152C" stroke-width="2"/>
<line y1="-1" x2="53.3746" y2="-1" transform="matrix(0.696266 -0.717784 0.696266 0.717784 11.8911 55.7192)" stroke="#11152C" stroke-width="2"/>
<line y1="-1" x2="19.1452" y2="-1" transform="matrix(0.696266 0.717784 -0.696266 0.717784 42.187 10.7451)" stroke="#11152C" stroke-width="2"/>
<line y1="-1" x2="18.6801" y2="-1" transform="matrix(-0.19462 0.980879 -0.978483 -0.20633 3.63574 47.677)" stroke="#11152C" stroke-width="2"/>
<line y1="-1" x2="18.2549" y2="-1" transform="matrix(-0.973633 0.228119 -0.21529 -0.97655 18.7583 60.8726)" stroke="#11152C" stroke-width="2"/>
</svg>
